# xmcd
#
# Track frame offsets:
#	150
#	19377
#	33483
#	51601
#	65444
#	79332
#	95665
#	107649
#	129774
#	142536
#	157055
#	172495
#	189355
#
# Disc length: 2689 seconds
#
# Revision: 1
# Processed by: cddbd v1.5.2PL0 Copyright (c) Steve Scherf et al.
# Submitted via: EasyCDDAExtractor 12.0.1.1
#
DISCID=b60a7f0d
DTITLE=Dolly Parton - The Grass Is Blue
DYEAR=2000
DGENRE=Country
TTITLE0=Travelin' Prayer
TTITLE1=Cash on the Barrelhead
TTITLE2=A Few Old Memories
TTITLE3=I'm Gonna Sleep With One Eye Open
TTITLE4=Steady As the Rain
TTITLE5=I Still Miss Someone
TTITLE6=Endless Stream of Tears
TTITLE7=Silver Dagger
TTITLE8=Train, Train
TTITLE9=I Wonder Where You Are Tonight
TTITLE10=Will He Be Waiting For Me
TTITLE11=The Grass Is Blue
TTITLE12=I Am Ready
EXTD=
EXTT0=
EXTT1=
EXTT2=
EXTT3=
EXTT4=
EXTT5=
EXTT6=
EXTT7=
EXTT8=
EXTT9=
EXTT10=
EXTT11=
EXTT12=
PLAYORDER=
